<svg width="160" height="160" viewBox="0 0 160 160" fill="none" xmlns="http://www.w3.org/2000/svg">
<circle cx="80" cy="80" r="72" stroke="#1A1928"/>
<path fill-rule="evenodd" clip-rule="evenodd" d="M88.1773 81.7549L110.61 104.262C111.13 104.708 111.13 105.599 110.61 106.119L107.119 109.61C106.599 110.13 105.708 110.13 105.262 109.61L82.7549 87.1773C74.7326 92.5998 63.8877 91.6342 56.9053 84.7261C49.0316 76.7781 49.0316 63.8533 56.9053 55.9053C64.8533 48.0316 77.7781 48.0316 85.7261 55.9053C92.6342 62.8877 93.5998 73.7326 88.1773 81.7549ZM71.9099 60.1393C71.3157 59.9164 71.8357 58.8765 72.5042 59.0993C76.961 59.7679 81.195 62.8134 82.8292 68.9044C82.9777 69.6472 81.8635 70.0929 81.715 69.4243C80.0808 63.9276 76.7382 61.1049 71.9099 60.1393ZM57.8709 56.8709C65.299 49.4429 77.3324 49.4429 84.7604 56.8709C91.52 63.6305 92.1885 74.3268 86.3946 81.9034L109.719 105.153L106.153 108.719L82.9034 85.3946C75.3268 91.1885 64.6305 90.52 57.8709 83.7604C50.4429 76.3324 50.4429 64.299 57.8709 56.8709ZM60.3222 59.3222C54.2312 65.4132 54.2312 75.2182 60.3222 81.3092C66.4132 87.4002 76.2182 87.4002 82.3092 81.3092C88.4002 75.2182 88.4002 65.4132 82.3092 59.3222C76.2182 53.2312 66.4132 53.2312 60.3222 59.3222ZM61.2136 60.2136C55.6425 65.7846 55.6425 74.8468 61.2136 80.4178C66.7846 85.9889 75.8468 85.9889 81.4178 80.4178C86.9889 74.8468 86.9889 65.7846 81.4178 60.2136C75.8468 54.6425 66.7846 54.6425 61.2136 60.2136Z" fill="black"/>
</svg>
