<svg width="160" height="160" viewBox="0 0 160 160" fill="none" xmlns="http://www.w3.org/2000/svg">
<circle cx="80" cy="80" r="72" stroke="#1A1928"/>
<g opacity="0.8">
<path d="M72.7035 41.8137C71.5783 41.7724 70.4727 42.1167 69.57 42.7897C69.0825 43.1869 68.6947 43.6926 68.4375 44.2665C68.1804 44.8403 68.061 45.4663 68.0888 46.0945V66.531C67.4176 66.6148 66.7695 66.8304 66.1818 67.1654C65.5941 67.5004 65.0784 67.9482 64.6642 68.483C62.9519 70.6748 62.5752 74.4761 63.5512 79.9213C64.0168 82.2892 64.9703 84.5343 66.3508 86.5137C68.3371 89.4418 69.4929 96.4024 69.8525 98.9451C69.0583 98.9696 68.3049 99.3024 67.7519 99.873C67.1989 100.444 66.8898 101.207 66.8902 102.002V116.411C66.8902 117.224 67.2131 118.003 67.7879 118.578C68.3627 119.153 69.1424 119.476 69.9553 119.476H93.7565C94.5694 119.476 95.349 119.153 95.9238 118.578C96.4986 118.003 96.8215 117.224 96.8215 116.411V102.002C96.8127 101.386 96.6185 100.787 96.2642 100.283C95.9099 99.7786 95.4119 99.3931 94.8352 99.1763L97.4979 92.7979C98.5064 89.6315 99.012 86.3266 98.9962 83.0035V68.209C99.0215 67.677 98.9189 67.1467 98.6969 66.6626C98.475 66.1784 98.1401 65.7545 97.7205 65.4265C96.9795 64.8708 96.0782 64.5704 95.152 64.5704C94.4273 64.5687 93.7102 64.7174 93.0459 65.007C92.9845 64.5687 92.8155 64.1525 92.5541 63.7954C92.2927 63.4384 91.9469 63.1516 91.5476 62.9608C90.6946 62.5471 89.7557 62.3418 88.8079 62.3615C87.9503 62.35 87.0986 62.5041 86.2993 62.8152C86.0682 61.1029 83.5511 60.4951 81.3764 60.4951C80.2799 60.474 79.1889 60.6539 78.1573 61.0259V45.4267C78.1658 43.2948 75.2891 41.8137 72.7035 41.8137ZM70.8029 100.649H90.5716H93.7479C94.1067 100.649 94.4507 100.791 94.7044 101.045C94.9581 101.299 95.1006 101.643 95.1006 102.002V116.411C95.1006 116.77 94.9581 117.114 94.7044 117.367C94.4507 117.621 94.1067 117.764 93.7479 117.764H69.9296C69.5708 117.764 69.2267 117.621 68.973 117.367C68.7194 117.114 68.5768 116.77 68.5768 116.411V102.002C68.5768 101.824 68.6118 101.648 68.6798 101.484C68.7478 101.32 68.8474 101.171 68.973 101.045C69.0987 100.919 69.2478 100.82 69.4119 100.752C69.576 100.684 69.7519 100.649 69.9296 100.649H70.8029ZM76.4535 63.1149C76.4535 63.342 76.5437 63.5597 76.7043 63.7203C76.8648 63.8809 77.0826 63.9711 77.3097 63.9711C77.5367 63.9711 77.7545 63.8809 77.9151 63.7203C78.0756 63.5597 78.1658 63.342 78.1658 63.1149C78.1658 62.8666 79.2959 62.2587 81.385 62.2587C83.474 62.2587 84.6127 62.8752 84.6127 63.1149V64.93C84.6127 65.157 84.7029 65.3748 84.8635 65.5354C85.024 65.6959 85.2418 65.7861 85.4689 65.7861C85.6959 65.7861 85.9137 65.6959 86.0742 65.5354C86.2348 65.3748 86.325 65.157 86.325 64.93C86.325 64.6817 87.2668 64.1252 88.8164 64.1252C89.4813 64.105 90.1416 64.2429 90.7428 64.5276C91.3592 64.8529 91.3592 65.2211 91.3592 65.3837V67.2758C91.3592 67.5029 91.4494 67.7207 91.61 67.8812C91.7705 68.0418 91.9883 68.132 92.2154 68.132C92.4424 68.132 92.6602 68.0418 92.8208 67.8812C92.9813 67.7207 93.0715 67.5029 93.0715 67.2758C93.0715 66.8991 93.9277 66.3255 95.1606 66.3255C95.7125 66.3062 96.2559 66.4654 96.7102 66.7793C96.9171 66.9528 97.08 67.1728 97.1856 67.4212C97.2913 67.6697 97.3367 67.9397 97.3181 68.209V83.0035C97.3184 86.1148 96.839 89.2076 95.8969 92.1729L93.063 98.9366H91.8558L94.4243 92.7637C95.4368 89.6091 95.9538 86.3166 95.9568 83.0035V73.9282C95.9568 73.7011 95.8666 73.4834 95.706 73.3228C95.5455 73.1622 95.3277 73.072 95.1006 73.072C94.8736 73.072 94.6558 73.1622 94.4952 73.3228C94.3347 73.4834 94.2445 73.7011 94.2445 73.9282V83.0035C94.2525 86.1148 93.7759 89.2083 92.8318 92.1729L91.2907 95.9743L90.0065 98.9366H71.5991C71.2652 96.4965 70.0666 88.9024 67.7892 85.5463C66.5292 83.769 65.6543 81.7481 65.2207 79.6131C64.3645 74.8614 64.6299 71.2827 65.9998 69.5361C66.5122 68.8663 67.258 68.4139 68.0888 68.269V74.3477C68.0888 74.5748 68.179 74.7925 68.3396 74.9531C68.5002 75.1137 68.7179 75.2039 68.945 75.2039C69.1721 75.2039 69.3898 75.1137 69.5504 74.9531C69.7109 74.7925 69.8011 74.5748 69.8011 74.3477V46.0945C69.7768 45.7155 69.8416 45.3362 69.9903 44.9868C70.139 44.6374 70.3674 44.3277 70.6573 44.0825C71.2654 43.6648 71.9921 43.4546 72.7292 43.4832C74.6641 43.4832 76.4792 44.5534 76.4792 45.3839L76.4535 63.1149Z" fill="black"/>
</g>
</svg>
