<svg width="48" height="48" viewBox="0 0 48 48" fill="none" xmlns="http://www.w3.org/2000/svg">
<path fill-rule="evenodd" clip-rule="evenodd" d="M24 44C35.0457 44 44 35.0457 44 24C44 12.9543 35.0457 4 24 4C12.9543 4 4 12.9543 4 24C4 35.0457 12.9543 44 24 44ZM32.7125 21.1933C32.7125 26.7544 28.4125 33.1671 20.5509 33.1671V33.1638C18.2283 33.1668 15.9539 32.5118 13.9992 31.2767C14.3369 31.3165 14.6766 31.3368 15.0167 31.3374C16.9417 31.3394 18.8115 30.7036 20.325 29.5324C19.433 29.5159 18.5686 29.2254 17.8526 28.7014C17.1366 28.1774 16.6048 27.4461 16.3317 26.61C16.9722 26.7314 17.6324 26.7067 18.2617 26.5378C17.2944 26.3454 16.4244 25.8295 15.7994 25.0776C15.1744 24.3257 14.8328 23.3841 14.8325 22.4125V22.3591C15.4269 22.6854 16.0923 22.866 16.7725 22.8859C15.8675 22.2909 15.2269 21.3787 14.981 20.335C14.7352 19.2913 14.9026 18.1946 15.4492 17.2682C16.5224 18.5682 17.8613 19.6314 19.3789 20.3889C20.8965 21.1464 22.559 21.5812 24.2584 21.665C24.0457 20.7629 24.1409 19.8168 24.5293 18.9733C24.9178 18.1298 25.5778 17.4358 26.4071 16.9988C27.2365 16.5618 28.1891 16.4061 29.1174 16.5558C30.0457 16.7055 30.8981 17.1523 31.5425 17.8269C32.4997 17.6411 33.4177 17.2956 34.2567 16.8055C33.9376 17.78 33.2698 18.6072 32.3775 19.1331C33.2249 19.0345 34.0524 18.8113 34.8325 18.471C34.2587 19.316 33.5365 20.0536 32.7 20.6493C32.7125 20.8298 32.7125 21.0111 32.7125 21.1933Z" fill="#237ED5"/>
</svg>
