<svg width="160" height="160" viewBox="0 0 160 160" fill="none" xmlns="http://www.w3.org/2000/svg">
<path d="M92.0562 69.7614C91.8725 69.7614 91.6903 69.6912 91.5499 69.5508C91.2692 69.2716 91.2692 68.8176 91.5499 68.5383L93.0911 66.9972C93.1254 66.9628 93.1628 66.93 93.2046 66.9031C94.3799 65.7114 95.6866 64.7213 97.0903 63.9567C97.4413 63.77 97.8729 63.8969 98.064 64.2434C98.2537 64.5913 98.1252 65.0274 97.7773 65.2171C96.4616 65.9324 95.2356 66.8702 94.1364 68.0022C94.0976 68.0425 94.0543 68.0769 94.0095 68.1067L92.5639 69.5508C92.4235 69.6912 92.2399 69.7614 92.0562 69.7614Z" fill="#1A1928"/>
<path d="M103.58 97.9623C103.185 97.9623 102.864 97.6412 102.864 97.2455C102.864 96.8497 103.185 96.5286 103.58 96.5286H108.803C112.3 96.4704 115.503 94.8172 117.581 91.9903C117.815 91.6707 118.266 91.6035 118.583 91.838C118.901 92.0724 118.97 92.5204 118.735 92.84C116.392 96.0299 112.775 97.8981 108.813 97.9623H103.58Z" fill="#1A1928"/>
<path d="M118.141 71.3982C117.888 71.3982 117.645 71.2653 117.514 71.0293C113.601 64.0149 104.748 61.406 97.7756 65.2096C96.4495 65.9384 95.2235 66.8792 94.1333 68.0037C93.7226 68.4263 92.8938 68.0933 92.8938 67.5049C92.8938 67.2645 93.0088 67.0524 93.1865 66.921C94.3573 65.7308 95.6685 64.7332 97.0872 63.9537C104.754 59.7693 114.475 62.6336 118.766 70.3319C118.959 70.6769 118.835 71.1129 118.489 71.3071C118.378 71.3683 118.259 71.3982 118.141 71.3982Z" fill="#1A1928"/>
<path d="M112.255 84.0813C109.209 84.0813 106.267 82.9867 103.97 80.999C103.743 80.8064 103.524 80.5958 103.303 80.3763C102.425 79.4877 101.727 78.5499 101.161 77.5239C100.963 77.1506 100.782 76.7892 100.612 76.4024C100.483 76.1007 100.359 75.7946 100.268 75.478C100.264 75.4676 100.261 75.4586 100.258 75.4541C99.8097 74.1235 99.5977 72.7914 99.5977 71.425C99.5977 71.1726 99.5977 70.9456 99.6215 70.6932C99.6186 70.6245 99.629 70.4857 99.6425 70.3453C99.6768 69.963 100.02 69.7091 100.388 69.6837C100.77 69.7016 101.073 70.0093 101.073 70.3931V70.4035C101.061 70.5663 101.052 70.6634 101.052 70.7515C101.03 71.0367 101.03 71.2189 101.03 71.425C101.03 72.6376 101.219 73.8174 101.591 74.9314C101.711 75.3122 101.82 75.5781 101.929 75.8319C102.081 76.1784 102.247 76.5099 102.423 76.8415C102.919 77.742 103.537 78.5738 104.255 79.3025C104.509 79.5564 104.701 79.7371 104.904 79.9103C106.944 81.677 109.554 82.6492 112.255 82.6492C112.651 82.6492 112.972 82.9703 112.972 83.366C112.972 83.7617 112.651 84.0813 112.255 84.0813Z" fill="#1A1928"/>
<path d="M94.6487 76.8206C94.465 76.8206 94.2813 76.7504 94.1425 76.61C93.8617 76.3293 93.8617 75.8768 94.1425 75.5975L99.8471 69.8928C100.128 69.6121 100.582 69.6121 100.86 69.8928C101.14 70.1736 101.14 70.6261 100.86 70.9053L95.155 76.61C95.0146 76.7504 94.8309 76.8206 94.6487 76.8206Z" fill="#1A1928"/>
<path d="M128.425 95.1816H120.497C118.959 95.1816 117.65 94.0317 117.449 92.5085C117.436 92.3621 117.426 92.2292 117.426 92.1083V70.4125C117.426 68.7176 118.804 67.3392 120.499 67.3392H128.5C130.195 67.3392 131.573 68.7176 131.573 70.4125L131.5 92.1098C131.497 93.8047 130.12 95.1816 128.425 95.1816ZM120.496 68.7713C119.592 68.7713 118.856 69.5075 118.856 70.411V92.1083C118.856 92.1859 118.864 92.271 118.873 92.3472C118.977 93.1342 119.676 93.748 120.497 93.748H128.425C129.329 93.748 130.065 93.0117 130.065 92.1083L130.138 70.4125C130.138 69.509 129.402 68.7728 128.499 68.7728H120.496V68.7713Z" fill="#1A1928"/>
<path d="M127.212 72.0172C127.021 72.0172 126.842 71.935 126.711 71.8021C126.579 71.6707 126.494 71.4915 126.494 71.3003C126.494 71.1092 126.578 70.918 126.711 70.7866C126.974 70.5223 127.451 70.5223 127.726 70.7866C127.858 70.9285 127.929 71.1092 127.929 71.3003C127.929 71.4915 127.858 71.6707 127.714 71.8021C127.583 71.947 127.404 72.0172 127.212 72.0172Z" fill="#1A1928"/>
<path d="M115.26 72.6347C115.008 72.6347 114.764 72.5017 114.633 72.2658C113.446 70.1362 111.555 68.4816 109.311 67.605C108.942 67.4616 108.758 67.0465 108.903 66.6776C109.045 66.3087 109.461 66.1236 109.83 66.2699C112.385 67.266 114.536 69.1476 115.886 71.5684C116.078 71.9134 115.955 72.3494 115.608 72.5436C115.498 72.6033 115.378 72.6347 115.26 72.6347Z" fill="#1A1928"/>
<path d="M89.3681 76.8221H85.9288C84.3548 76.8221 83.0735 75.5467 83.0735 73.9787V71.1711C83.0735 69.6031 84.3548 68.3278 85.9288 68.3278H92.0576C92.3473 68.3278 92.6087 68.501 92.7192 68.7683C92.8312 69.0356 92.77 69.3433 92.5669 69.5493L90.1058 72.0224C90.1028 72.0239 90.1028 72.0254 90.1013 72.0268C89.1097 73.0095 89.032 74.5671 89.9221 75.6498C90.0983 75.8633 90.1357 76.159 90.0177 76.4099C89.8982 76.6623 89.6458 76.8221 89.3681 76.8221ZM85.9288 69.7614C85.1448 69.7614 84.5071 70.3946 84.5071 71.1726V73.9802C84.5071 74.7567 85.1448 75.3914 85.9288 75.3914H88.1345C87.5715 73.9055 87.9031 72.1911 89.0918 71.0128L90.3343 69.7629H85.9288V69.7614Z" fill="#1A1928"/>
<path d="M101.006 83.8827H87.5895C86.014 83.8827 84.7341 82.6014 84.7341 81.0274V78.2303C84.7341 76.6638 86.014 75.3884 87.5895 75.3884H89.3696C89.5786 75.3884 89.7773 75.4795 89.9132 75.6378C89.9609 75.6931 90.0072 75.7528 90.0655 75.8006C91.178 76.8908 92.9089 76.8325 93.9049 75.8379L94.1439 75.599C94.2783 75.4631 94.4605 75.3884 94.6501 75.3884H101.006C101.136 75.3884 101.263 75.4228 101.373 75.49C101.508 75.5691 101.656 75.6632 101.788 75.7588C101.891 75.8305 101.974 75.9305 102.026 76.044C102.153 76.3188 102.29 76.5831 102.429 76.846C102.901 77.7136 103.516 78.5454 104.256 79.307C104.518 79.5579 104.699 79.7401 104.892 79.8999C105.101 80.0731 105.193 80.3494 105.132 80.6152C104.692 82.5088 102.955 83.8827 101.006 83.8827ZM87.588 76.8221C86.804 76.8221 86.1663 77.4538 86.1663 78.2318V81.0289C86.1663 81.8129 86.804 82.4506 87.588 82.4506H101.004C102.157 82.4506 103.197 81.7263 103.613 80.6794C103.515 80.5854 103.419 80.4898 103.322 80.3942C103.289 80.3703 103.249 80.333 103.221 80.3046C102.395 79.4534 101.7 78.5156 101.163 77.524C101.04 77.291 100.922 77.0625 100.809 76.831C100.806 76.828 100.803 76.8265 100.8 76.8236L94.9145 76.8534C93.3823 78.3886 90.6763 78.4155 89.0918 76.8579C89.0799 76.8489 89.0679 76.837 89.0545 76.8236H87.588V76.8221Z" fill="#1A1928"/>
<path d="M99.4228 90.9285H89.2379C87.6684 90.9285 86.3931 89.6531 86.3931 88.0836V85.285C86.3931 83.7155 87.6684 82.4401 89.2379 82.4401H99.2704C101.519 82.4401 103.443 84.1217 103.648 86.2691C103.761 87.4638 103.367 88.6555 102.563 89.5381C101.763 90.4222 100.616 90.9285 99.4228 90.9285ZM89.2394 83.8738C88.4614 83.8738 87.8282 84.507 87.8282 85.285V88.0836C87.8282 88.8616 88.4614 89.4948 89.2394 89.4948H99.4242C100.216 89.4948 100.973 89.1588 101.506 88.5734C102.045 87.9805 102.299 87.2115 102.223 86.405C102.087 84.9863 100.792 83.8738 99.2734 83.8738H89.2394Z" fill="#1A1928"/>
<path d="M97.9072 97.9847H92.2981C92.2593 97.9847 92.204 97.9802 92.1667 97.9742L90.9003 97.9817C89.3308 97.9817 88.0554 96.7063 88.0554 95.1368V92.3382C88.0554 90.7687 89.3323 89.4933 90.9003 89.4933H97.0306C97.0321 89.4933 97.0321 89.4933 97.0336 89.4933L97.7594 89.4963C100.007 89.4963 101.929 91.1794 102.135 93.3268C102.248 94.5215 101.854 95.7132 101.051 96.5958C100.244 97.4784 99.1004 97.9847 97.9072 97.9847ZM90.8988 90.9255C90.1193 90.9255 89.4861 91.5587 89.4861 92.3367V95.1353C89.4861 95.9134 90.1193 96.5465 90.8988 96.5465H92.2652C92.3041 96.5465 92.3578 96.551 92.3952 96.557L97.9072 96.5495C98.6987 96.5495 99.4573 96.2135 99.989 95.6281C100.528 95.0353 100.782 94.2647 100.706 93.4597C100.57 92.0396 99.2751 90.927 97.7564 90.927L90.8988 90.9255Z" fill="#1A1928"/>
<path d="M67.95 69.7674C67.7663 69.7674 67.5841 69.6972 67.4437 69.5583L65.9757 68.0918C65.9354 68.065 65.8981 68.0351 65.8637 67.9993C64.7751 66.8718 63.552 65.9354 62.2288 65.2126C61.8809 65.023 61.7525 64.5884 61.9436 64.2404C62.1318 63.8925 62.5678 63.7626 62.9158 63.9552C64.333 64.7273 65.6427 65.7234 66.8105 66.9136C66.8449 66.9375 66.8777 66.9644 66.9076 66.9927L68.4577 68.5428C68.7385 68.8236 68.7385 69.2761 68.4592 69.5568C68.3173 69.6972 68.1336 69.7674 67.95 69.7674Z" fill="#1A1928"/>
<path d="M56.4198 97.9623H51.1975C47.2236 97.8981 43.6066 96.0299 41.2635 92.84C41.0291 92.5204 41.0978 92.0724 41.4159 91.838C41.7325 91.6035 42.1835 91.6692 42.4179 91.9903C44.4952 94.8172 47.6985 96.4704 51.2079 96.5286H56.4183C56.814 96.5286 57.1351 96.8497 57.1351 97.2455C57.1366 97.6412 56.8155 97.9623 56.4198 97.9623Z" fill="#1A1928"/>
<path d="M41.8593 71.3982C41.7413 71.3982 41.6219 71.3683 41.5114 71.3071C41.1649 71.1129 41.0409 70.6769 41.2336 70.3319C45.5255 62.6335 55.2489 59.7678 62.9114 63.9522C64.3495 64.7422 65.6741 65.7532 66.8539 66.9613C67.0092 67.0928 67.1078 67.2884 67.1078 67.5049C67.1078 67.9007 66.7957 68.2217 66.4014 68.2217H66.382C66.1879 68.2217 66.0027 68.1441 65.8668 68.0052C64.7766 66.8807 63.5491 65.9399 62.2215 65.2096C55.2489 61.4045 46.3947 64.0179 42.485 71.0308C42.3551 71.2652 42.1117 71.3982 41.8593 71.3982Z" fill="#1A1928"/>
<path d="M39.5043 95.1816H31.6412C29.9462 95.1816 28.5679 93.8032 28.5679 92.1083L28.5679 70.4125C28.5679 68.7176 29.9463 67.3392 31.6412 67.3392C33.3362 67.3392 39.5043 67.3392 39.5043 67.3392C41.1992 67.3392 42.5776 68.7176 42.5776 70.4125V92.1098C42.5776 92.2307 42.5672 92.3636 42.5567 92.4846C42.3521 94.0332 41.0424 95.1816 39.5043 95.1816ZM31.6397 68.7713C30.7363 68.7713 30 69.5075 30 70.411L30 92.1083C30 93.0117 30.7362 93.748 31.6397 93.748H39.5028C40.3226 93.748 41.023 93.1342 41.1305 92.3218C41.135 92.271 41.144 92.1859 41.144 92.1083V70.4125C41.144 69.509 40.4078 68.7728 39.5043 68.7728H36.183C36.183 68.7728 32.5432 68.7713 31.6397 68.7713Z" fill="#1A1928"/>
<path d="M32.7879 92.0171C32.5967 92.0171 32.4175 91.9455 32.2861 91.8021C32.1428 91.6707 32.0696 91.4915 32.0696 91.3003C32.0696 91.1092 32.1413 90.93 32.2727 90.7866C32.537 90.5223 33.0134 90.5118 33.2882 90.7866C33.4181 90.9285 33.5032 91.1092 33.5032 91.3003C33.5032 91.4915 33.4196 91.6707 33.2882 91.8021C33.1582 91.935 32.9671 92.0171 32.7879 92.0171Z" fill="#1A1928"/>
<path d="M74.0772 76.8206H72.6779C72.2822 76.8206 71.9611 76.4995 71.9611 76.1038C71.9611 75.708 72.2822 75.3869 72.6779 75.3869H74.0772C74.8568 75.3869 75.49 74.7537 75.49 73.9742V71.1771C75.49 70.3976 74.8568 69.7644 74.0772 69.7644H61.7808C61.385 69.7644 61.064 69.4433 61.064 69.0476C61.064 68.6518 61.385 68.3307 61.7808 68.3307H74.0772C75.6468 68.3307 76.9221 69.6076 76.9221 71.1756V73.9727C76.9236 75.5437 75.6468 76.8206 74.0772 76.8206Z" fill="#1A1928"/>
<path d="M72.4181 83.8768H71.0174C70.6216 83.8768 70.3005 83.5557 70.3005 83.16C70.3005 82.7642 70.6216 82.4431 71.0174 82.4431H72.4181C73.1962 82.4431 73.8294 81.81 73.8294 81.0304V78.2318C73.8294 77.4538 73.1962 76.8206 72.4181 76.8206C72.0224 76.8206 71.7013 76.4995 71.7013 76.1038C71.7013 75.708 72.0224 75.387 72.4181 75.387C73.9877 75.387 75.263 76.6623 75.263 78.2318V81.0304C75.2615 82.6 73.9862 83.8768 72.4181 83.8768Z" fill="#1A1928"/>
<path d="M70.7606 90.9285H69.3613C68.9656 90.9285 68.6445 90.6074 68.6445 90.2116C68.6445 89.8159 68.9656 89.4948 69.3613 89.4948H70.7606C71.5387 89.4948 72.1719 88.8616 72.1719 88.0836V85.285C72.1719 84.507 71.5387 83.8738 70.7606 83.8738C70.3649 83.8738 70.0438 83.5527 70.0438 83.1569C70.0438 82.7612 70.3649 82.4401 70.7606 82.4401C72.3302 82.4401 73.6055 83.7155 73.6055 85.285V88.0836C73.6055 89.6531 72.3302 90.9285 70.7606 90.9285Z" fill="#1A1928"/>
<path d="M56.4197 97.9847C56.024 97.9847 55.7029 97.6636 55.7029 97.2679C55.7029 96.8721 56.024 96.551 56.4197 96.551L69.1014 96.548C69.881 96.548 70.5142 95.9149 70.5142 95.1368V92.3382C70.5142 91.5602 69.881 90.927 69.1014 90.927C68.7057 90.927 68.3846 90.6059 68.3846 90.2102C68.3846 89.8144 68.7057 89.4933 69.1014 89.4933C70.671 89.4933 71.9463 90.7687 71.9463 92.3382V95.1368C71.9463 96.7063 70.6695 97.9817 69.1014 97.9817L56.4197 97.9847Z" fill="#1A1928"/>
<path d="M52.6684 94.4185C52.6655 94.4185 52.661 94.4185 52.6565 94.4185C49.6279 94.3692 46.8622 92.943 45.0717 90.5029C44.8372 90.1833 44.9059 89.7353 45.224 89.5008C45.5436 89.2634 45.9916 89.3335 46.226 89.6531C47.7493 91.7289 50.1013 92.943 52.6789 92.9848C53.0746 92.9908 53.3912 93.3179 53.3838 93.7121C53.3778 94.1064 53.0582 94.4185 52.6684 94.4185Z" fill="#1A1928"/>
<path d="M80 56.4241C79.6043 56.4241 79.2832 56.103 79.2832 55.7073V52.5682C79.2832 52.1725 79.6043 51.8514 80 51.8514C80.3958 51.8514 80.7168 52.1725 80.7168 52.5682V55.7073C80.7168 56.103 80.3958 56.4241 80 56.4241Z" fill="#1A1928"/>
<path d="M70.8801 59.2271C70.6203 59.2271 70.3679 59.0837 70.241 58.8344L68.7327 55.867C68.5535 55.5146 68.6938 55.083 69.0478 54.9038C69.3972 54.7261 69.8303 54.8635 70.011 55.2189L71.5193 58.1862C71.6985 58.5387 71.5581 58.9702 71.2042 59.1495C71.1012 59.2002 70.9892 59.2271 70.8801 59.2271Z" fill="#1A1928"/>
<path d="M89.1202 59.2272C89.0112 59.2272 88.8992 59.2018 88.7961 59.1495C88.4422 58.9703 88.3033 58.5387 88.481 58.1863L89.9893 55.2189C90.17 54.865 90.6031 54.7276 90.9526 54.9038C91.3065 55.083 91.4454 55.5146 91.2677 55.8671L89.7594 58.8344C89.6324 59.0838 89.38 59.2272 89.1202 59.2272Z" fill="#1A1928"/>
<path d="M80 111.53C79.6043 111.53 79.2832 111.209 79.2832 110.813V107.675C79.2832 107.279 79.6043 106.958 80 106.958C80.3958 106.958 80.7168 107.279 80.7168 107.675V110.813C80.7168 111.209 80.3958 111.53 80 111.53Z" fill="#1A1928"/>
<path d="M90.6284 108.558C90.3686 108.558 90.1162 108.414 89.9893 108.165L88.481 105.198C88.3018 104.845 88.4421 104.414 88.7961 104.234C89.1455 104.055 89.5786 104.194 89.7593 104.55L91.2676 107.517C91.4468 107.869 91.3064 108.301 90.9525 108.48C90.8494 108.532 90.7389 108.558 90.6284 108.558Z" fill="#1A1928"/>
<path d="M69.3717 108.558C69.2626 108.558 69.1506 108.532 69.0476 108.48C68.6937 108.301 68.5548 107.869 68.7325 107.517L70.2408 104.55C70.4215 104.194 70.8531 104.057 71.204 104.234C71.558 104.414 71.6968 104.845 71.5191 105.198L70.0108 108.165C69.8839 108.414 69.6315 108.558 69.3717 108.558Z" fill="#1A1928"/>
<circle cx="80" cy="80" r="72" stroke="#1A1928"/>
</svg>
