<svg width="48" height="48" viewBox="0 0 48 48" fill="none" xmlns="http://www.w3.org/2000/svg">
<path d="M23.8438 44.3125C20.3724 44.3125 17.111 43.4727 14.0596 41.793L1 47L6.20703 33.9404C4.52734 30.889 3.6875 27.6276 3.6875 24.1562C3.6875 21.4128 4.2194 18.8022 5.2832 16.3247C6.34701 13.8472 7.78174 11.7056 9.5874 9.8999C11.3931 8.09424 13.5347 6.65951 16.0122 5.5957C18.4897 4.5319 21.1003 4 23.8438 4C26.5872 4 29.1978 4.5319 31.6753 5.5957C34.1528 6.65951 36.2944 8.09424 38.1001 9.8999C39.9058 11.7056 41.3405 13.8472 42.4043 16.3247C43.4681 18.8022 44 21.4128 44 24.1562C44 26.8997 43.4681 29.5103 42.4043 31.9878C41.3405 34.4653 39.9058 36.6069 38.1001 38.4126C36.2944 40.2183 34.1528 41.653 31.6753 42.7168C29.1978 43.7806 26.5872 44.3125 23.8438 44.3125ZM30.5625 28.1875H27.875L26.3633 29.5312C25.1035 29.1953 23.5568 28.1105 21.7231 26.2769C19.8895 24.4432 18.8047 22.8965 18.4688 21.6367L19.8125 20.125V17.4375C19.8125 16.9616 19.6445 16.4857 19.3086 16.0098C18.9727 15.5339 18.6017 15.1909 18.1958 14.981C17.7899 14.771 17.5029 14.75 17.335 14.918L15.3613 16.8916C14.2695 17.9834 14.1086 19.6841 14.8784 21.9937C15.6483 24.3032 17.118 26.5428 19.2876 28.7124C21.4572 30.882 23.6968 32.3517 26.0063 33.1216C28.3159 33.8914 30.0166 33.7305 31.1084 32.6387L33.082 30.665C33.25 30.4971 33.229 30.2101 33.019 29.8042C32.8091 29.3983 32.4661 29.0273 31.9902 28.6914C31.5143 28.3555 31.0384 28.1875 30.5625 28.1875Z" fill="#237ED5"/>
</svg>
